<mxfile host="app.diagrams.net" agent="Mozilla/5.0 (Windows NT 10.0; Win64; x64) AppleWebKit/537.36 (KHTML, like Gecko) Chrome/128.0.0.0 Safari/537.36" version="24.7.14">
  <diagram id="6a731a19-8d31-9384-78a2-239565b7b9f0" name="Page-1">
    <mxGraphModel dx="1195" dy="650" grid="1" gridSize="10" guides="1" tooltips="1" connect="1" arrows="1" fold="1" page="1" pageScale="1" pageWidth="1169" pageHeight="827" background="none" math="0" shadow="0">
      <root>
        <mxCell id="0" />
        <mxCell id="1" parent="0" />
        <mxCell id="2" value="&lt;font style=&quot;font-size: 14px;&quot;&gt;start&lt;/font&gt;" style="shape=mxgraph.flowchart.terminator;strokeWidth=2;gradientColor=none;gradientDirection=north;fontStyle=0;html=1;" parent="1" vertex="1">
          <mxGeometry x="280" y="50" width="80" height="40" as="geometry" />
        </mxCell>
        <mxCell id="3" value="&lt;font style=&quot;font-size: 14px;&quot;&gt;input [ ] Strings&lt;/font&gt;&lt;div&gt;&lt;font style=&quot;font-size: 14px;&quot;&gt;i = 0&lt;/font&gt;&lt;/div&gt;" style="shape=mxgraph.flowchart.data;strokeWidth=2;gradientColor=none;gradientDirection=north;fontStyle=0;html=1;" parent="1" vertex="1">
          <mxGeometry x="240.5" y="130" width="159" height="80" as="geometry" />
        </mxCell>
        <mxCell id="7" style="fontStyle=1;strokeColor=#003366;strokeWidth=1;html=1;" parent="1" source="2" target="3" edge="1">
          <mxGeometry relative="1" as="geometry" />
        </mxCell>
        <mxCell id="8" style="fontStyle=1;strokeColor=#003366;strokeWidth=1;html=1;" parent="1" source="3" edge="1">
          <mxGeometry relative="1" as="geometry">
            <mxPoint x="320" y="250" as="targetPoint" />
          </mxGeometry>
        </mxCell>
        <mxCell id="Zjd__CL-d_f2vvDHW-AK-55" value="&lt;font style=&quot;font-size: 14px;&quot;&gt;a; strings&lt;/font&gt;" style="shape=loopLimit;whiteSpace=wrap;html=1;strokeWidth=2;" vertex="1" parent="1">
          <mxGeometry x="235" y="250" width="170" height="40" as="geometry" />
        </mxCell>
        <mxCell id="Zjd__CL-d_f2vvDHW-AK-59" style="edgeStyle=orthogonalEdgeStyle;rounded=0;orthogonalLoop=1;jettySize=auto;html=1;exitX=0.5;exitY=1;exitDx=0;exitDy=0;exitPerimeter=0;" edge="1" parent="1" source="Zjd__CL-d_f2vvDHW-AK-56" target="Zjd__CL-d_f2vvDHW-AK-58">
          <mxGeometry relative="1" as="geometry" />
        </mxCell>
        <mxCell id="Zjd__CL-d_f2vvDHW-AK-64" style="edgeStyle=orthogonalEdgeStyle;rounded=0;orthogonalLoop=1;jettySize=auto;html=1;entryX=0;entryY=0.75;entryDx=0;entryDy=0;exitX=1;exitY=0.5;exitDx=0;exitDy=0;exitPerimeter=0;" edge="1" parent="1" source="Zjd__CL-d_f2vvDHW-AK-56" target="Zjd__CL-d_f2vvDHW-AK-62">
          <mxGeometry relative="1" as="geometry">
            <Array as="points">
              <mxPoint x="430" y="360" />
              <mxPoint x="430" y="550" />
            </Array>
          </mxGeometry>
        </mxCell>
        <mxCell id="Zjd__CL-d_f2vvDHW-AK-56" value="&lt;font style=&quot;font-size: 14px;&quot;&gt;a.Length &amp;lt; = 3&lt;/font&gt;" style="strokeWidth=1;html=1;shape=mxgraph.flowchart.decision;whiteSpace=wrap;" vertex="1" parent="1">
          <mxGeometry x="230" y="330" width="180" height="60" as="geometry" />
        </mxCell>
        <mxCell id="Zjd__CL-d_f2vvDHW-AK-57" style="edgeStyle=orthogonalEdgeStyle;rounded=0;orthogonalLoop=1;jettySize=auto;html=1;exitX=0.5;exitY=1;exitDx=0;exitDy=0;entryX=0.5;entryY=0;entryDx=0;entryDy=0;entryPerimeter=0;" edge="1" parent="1" source="Zjd__CL-d_f2vvDHW-AK-55" target="Zjd__CL-d_f2vvDHW-AK-56">
          <mxGeometry relative="1" as="geometry" />
        </mxCell>
        <mxCell id="Zjd__CL-d_f2vvDHW-AK-63" style="edgeStyle=orthogonalEdgeStyle;rounded=0;orthogonalLoop=1;jettySize=auto;html=1;exitX=0.5;exitY=1;exitDx=0;exitDy=0;entryX=0.5;entryY=1;entryDx=0;entryDy=0;" edge="1" parent="1" source="Zjd__CL-d_f2vvDHW-AK-58" target="Zjd__CL-d_f2vvDHW-AK-62">
          <mxGeometry relative="1" as="geometry" />
        </mxCell>
        <mxCell id="Zjd__CL-d_f2vvDHW-AK-58" value="&lt;font style=&quot;font-size: 14px;&quot;&gt;NewS&lt;span style=&quot;background-color: initial;&quot;&gt;trings [ i ] = a&lt;/span&gt;&lt;/font&gt;&lt;div&gt;&lt;font style=&quot;font-size: 14px;&quot;&gt;&lt;span style=&quot;background-color: initial;&quot;&gt;i = i + 1&lt;/span&gt;&lt;/font&gt;&lt;/div&gt;" style="rounded=0;whiteSpace=wrap;html=1;" vertex="1" parent="1">
          <mxGeometry x="250" y="430" width="140" height="60" as="geometry" />
        </mxCell>
        <mxCell id="Zjd__CL-d_f2vvDHW-AK-61" value="&lt;div style=&quot;text-align: center;&quot;&gt;&lt;span style=&quot;background-color: initial; font-size: 14px;&quot;&gt;YES&lt;/span&gt;&lt;/div&gt;" style="text;whiteSpace=wrap;html=1;" vertex="1" parent="1">
          <mxGeometry x="320" y="394" width="150" height="40" as="geometry" />
        </mxCell>
        <mxCell id="Zjd__CL-d_f2vvDHW-AK-66" style="edgeStyle=orthogonalEdgeStyle;rounded=0;orthogonalLoop=1;jettySize=auto;html=1;exitX=0.5;exitY=0;exitDx=0;exitDy=0;entryX=0.5;entryY=0;entryDx=0;entryDy=0;" edge="1" parent="1" source="Zjd__CL-d_f2vvDHW-AK-62" target="Zjd__CL-d_f2vvDHW-AK-65">
          <mxGeometry relative="1" as="geometry" />
        </mxCell>
        <mxCell id="Zjd__CL-d_f2vvDHW-AK-62" value="" style="shape=loopLimit;whiteSpace=wrap;html=1;strokeWidth=2;rotation=-180;" vertex="1" parent="1">
          <mxGeometry x="235" y="540" width="170" height="40" as="geometry" />
        </mxCell>
        <mxCell id="Zjd__CL-d_f2vvDHW-AK-65" value="Print Strings [ ]&lt;div&gt;Print NewStrings [ ]&lt;/div&gt;" style="shape=document;whiteSpace=wrap;html=1;boundedLbl=1;strokeWidth=2;" vertex="1" parent="1">
          <mxGeometry x="260" y="630" width="120" height="80" as="geometry" />
        </mxCell>
        <mxCell id="Zjd__CL-d_f2vvDHW-AK-68" style="edgeStyle=orthogonalEdgeStyle;rounded=0;orthogonalLoop=1;jettySize=auto;html=1;entryX=0.5;entryY=0;entryDx=0;entryDy=0;entryPerimeter=0;" edge="1" parent="1" source="Zjd__CL-d_f2vvDHW-AK-65">
          <mxGeometry relative="1" as="geometry">
            <mxPoint x="320" y="750" as="targetPoint" />
          </mxGeometry>
        </mxCell>
        <mxCell id="Zjd__CL-d_f2vvDHW-AK-69" value="&lt;font style=&quot;font-size: 14px;&quot;&gt;finish&lt;/font&gt;" style="shape=mxgraph.flowchart.terminator;strokeWidth=2;gradientColor=none;gradientDirection=north;fontStyle=0;html=1;" vertex="1" parent="1">
          <mxGeometry x="280" y="750" width="80" height="40" as="geometry" />
        </mxCell>
        <mxCell id="Zjd__CL-d_f2vvDHW-AK-70" value="&lt;div style=&quot;text-align: center;&quot;&gt;&lt;span style=&quot;background-color: initial; font-size: 14px;&quot;&gt;NO&lt;/span&gt;&lt;/div&gt;" style="text;whiteSpace=wrap;html=1;" vertex="1" parent="1">
          <mxGeometry x="435" y="440" width="150" height="40" as="geometry" />
        </mxCell>
      </root>
    </mxGraphModel>
  </diagram>
</mxfile>
